<?xml version="1.0" encoding="UTF-8" standalone="no"?>
<svg
   xmlns:dc="http://purl.org/dc/elements/1.1/"
   xmlns:cc="http://creativecommons.org/ns#"
   xmlns:rdf="http://www.w3.org/1999/02/22-rdf-syntax-ns#"
   xmlns:svg="http://www.w3.org/2000/svg"
   xmlns="http://www.w3.org/2000/svg"
   xmlns:sodipodi="http://sodipodi.sourceforge.net/DTD/sodipodi-0.dtd"
   xmlns:inkscape="http://www.inkscape.org/namespaces/inkscape"
   width="297mm"
   height="210mm"
   viewBox="0 0 297 210"
   version="1.1"
   id="svg1316"
   inkscape:version="1.0.1 (3bc2e813f5, 2020-09-07)">
  <defs
     id="defs1310">
    <linearGradient
       y2="108.59296"
       x2="315.88003"
       y1="109.87592"
       x1="233.7968"
       id="svg_37"
       gradientTransform="scale(0.71678505,1.3951184)"
       gradientUnits="userSpaceOnUse">
      <stop
         offset="0.47266"
         stop-opacity="0.99219"
         stop-color="#e08835"
         id="stop2484" />
      <stop
         offset="0.92188"
         stop-opacity="0.98828"
         stop-color="#e04c51"
         id="stop2486" />
    </linearGradient>
    <linearGradient
       y2="103.29913"
       x2="244.29976"
       y1="104.80055"
       x1="184.83921"
       id="svg_36"
       gradientTransform="scale(0.67967311,1.4712955)"
       gradientUnits="userSpaceOnUse">
      <stop
         offset="0.38672"
         stop-opacity="0.99609"
         stop-color="#e58a34"
         id="stop2479" />
      <stop
         offset="0.80469"
         stop-opacity="0.98828"
         stop-color="#ed4242"
         id="stop2481" />
    </linearGradient>
    <linearGradient
       y2="103.40487"
       x2="164.82104"
       y1="103.40487"
       x1="88.955148"
       id="svg_35"
       gradientTransform="scale(0.67371254,1.4843126)"
       gradientUnits="userSpaceOnUse">
      <stop
         offset="0.25"
         stop-opacity="0.99609"
         stop-color="#e58a34"
         id="stop2474" />
      <stop
         offset="0.81641"
         stop-opacity="0.98047"
         stop-color="#ea4848"
         id="stop2476" />
    </linearGradient>
    <linearGradient
       y2="105.75351"
       x2="320.67206"
       y1="105.75351"
       x1="240.53577"
       id="svg_43"
       gradientTransform="scale(0.69938586,1.4298259)"
       gradientUnits="userSpaceOnUse">
      <stop
         offset="0.47266"
         stop-opacity="0.99609"
         stop-color="#e0934c"
         id="stop2489" />
      <stop
         offset="1"
         stop-opacity="0.99609"
         stop-color="#b22020"
         id="stop2491" />
    </linearGradient>
  </defs>
  <sodipodi:namedview
     id="base"
     pagecolor="#ffffff"
     bordercolor="#666666"
     borderopacity="1.0"
     inkscape:pageopacity="0.0"
     inkscape:pageshadow="2"
     inkscape:zoom="0.35"
     inkscape:cx="400"
     inkscape:cy="560"
     inkscape:document-units="mm"
     inkscape:current-layer="layer1"
     inkscape:document-rotation="0"
     showgrid="false"
     inkscape:window-width="1343"
     inkscape:window-height="908"
     inkscape:window-x="0"
     inkscape:window-y="0"
     inkscape:window-maximized="0" />
  <metadata
     id="metadata1313">
    <rdf:RDF>
      <cc:Work
         rdf:about="">
        <dc:format>image/svg+xml</dc:format>
        <dc:type
           rdf:resource="http://purl.org/dc/dcmitype/StillImage" />
        <dc:title></dc:title>
      </cc:Work>
    </rdf:RDF>
  </metadata>
  <g
     inkscape:label="Layer 1"
     inkscape:groupmode="layer"
     id="layer1">
    <g
       id="_x23_000000ff"
       style="opacity:1"
       transform="matrix(0.17180751,0,0,0.14975556,-22.339009,-20.126795)">
      <path
         stroke="#000000"
         stroke-width="0.0938"
         d="m 1180.8101,560.64 c 7.1299,-3.99 16.1299,-2.98 23,1.1 9,5.19 16.4099,13.39 20.11,23.16 1.51,4.31 2.46,9.22 0.59,13.58 -2.53,5.9 -4.53,12.03 -7.54,17.71 -3.64,7.03 -8.34,13.42 -12.88,19.88 -0.33,2.55 0.02,5.37 -1.37,7.67 -1.63,2.59 -4.0599,4.56 -6.6,6.2 -9.5599,-8.02 -21.09,-13.55 -29.6,-22.8 -0.1901,-0.2 -0.5801,-0.59 -0.78,-0.79 -1.7,-6.72 -5.9,-12.37 -8.24,-18.8199 -2.22,-6.4301 -1.8,-13.82 1.59,-19.77 1.1,-2.07 2.3201,-4.08 3.51,-6.1 4.6399,-8.0201 9.8398,-16.4401 18.21,-21.0201 z"
         id="path241" />
      <path
         stroke="#000000"
         stroke-width="0.0938"
         d="m 864.8,587.33 c 9.12,-2.78 19.61,-2.34 27.81,2.86 5.12,3.15 7.95,9.02 8.54,14.87 0.56,7.22 -0.37,14.47 -1.95,21.52 -1.44,6.43 -3.29,12.75 -5.16,19.07 -2.24,7.3199 -4.1,14.75 -5.43,22.3 -5.63,6.31 -10.99,12.93 -17.87,17.96 -6.34,-5.22 -12.91,-10.18 -18.77,-15.94 -1.8,-2.34 -2.5099,-5.31 -3.5699,-8.0099 0,-8.15 -0.59,-16.29 -2,-24.32 -2.15,-13.13 -3.44,-27.45 3.33,-39.53 C 853.03,592.6 858.92,589.39 864.8,587.33 Z"
         id="path243" />
      <path
         stroke="#000000"
         stroke-width="0.0938"
         d="m 407.5,618.62 c 12.93,-3 27.9,3.16 33.59,15.45 3.45,6.62 2.61,14.28 2.08,21.45 1.68,0.78 3.37,1.56 5.06,2.36 -0.1,4.9 0.02,10.23 -2.79,14.49 -1.66,2.7 -4.99,3.16 -7.82,3.74 -2.6,10.19 -5.29,21.35 -1.47,31.58 -1.6,2.89 -2.94,5.94 -4.71,8.74 -4.47,5.93 -9.93,11.05 -15.88,15.48 2.87,3.07 5.51,6.41 7.05,10.38 -1.1,1.23 -2.22,2.44 -3.35,3.65 0.22,2.61 1.1,5.1 2.55,7.29 2.51,3.64 0.91,8.27 0.98,12.36 0.38,-0.01 1.13,-0.02 1.51,-0.03 -0.44,-6.64 2.45,-12.72 4.11,-18.98 2.77,-6.84 6.09,-13.51 7.99,-20.67 1.26,-4.6299 2.01,-9.3799 3.45,-13.96 2.66,2.73 4.61,6.63 8.51,7.8 3.75,1.19 7.48,2.44 11.18,3.81 9.11,2.88 18.73,4.77 26.95,9.87 4.25,2.77 7.58,7.04 8.72,12.03 3.33,15.28 4.87,30.87 6.11,46.44 2.03,42.46 -3.8,85.05 0.9,127.41 0.13,7.89 0.87,15.82 -0.18,23.68 -0.31,2.03 -0.33,4.11 0.02,6.15 l -0.89,-0.82 -0.13,2.26 c 0.44,0 1.32,-0.01 1.76,-0.01 -0.76,0.06 -2.28,0.2 -3.04,0.26 -0.22,-0.99 -0.44,-1.97 -0.67,-2.94 -0.04,-1.5 -2.04,-1.32 -3,-1.78 -7.04,-1.36 -14.37,-1.76 -21.45,-0.41 -0.35,2.28 -0.18,4.58 0.28,6.85 -1.51,-0.73 -3.02,-1.44 -4.53,-2.12 -0.12,-0.45 -0.37,-1.36 -0.49,-1.81 -0.45,-13.19 1.02,-26.41 0.04,-39.59 -5.76,5.6299 -2.33,13.95 -1.79,20.8199 0.44,9.39 0.49,18.79 0.41,28.19 -0.07,7.42 -0.57,14.9 -2.45,22.1 -2.29,7.8 -1.39,16.01 -2.27,24 -2.27,38.92 -4.91,77.85 -5.24,116.85 -0.22,10.05 1.89,19.96 2.06,30 0.22,6.7 -0.58,13.77 2.31,20.05 0.81,2.33 2.71,4.85 1.46,7.39 -2.18,2 -4.78,3.47 -7.11,5.2999 0.73,3.8 1.42,7.65 2.61,11.36 3.71,11.98 11.5,22.27 14.65,34.4701 1.28,5.3799 2.91,11.1799 0.74,16.5599 -4.66,2.5699 -10.09,4.33 -15.39,2.79 -11.67,-2.5701 -19.89,-12.28 -25.34,-22.3201 -1.4,-3.8099 -0.55,-8.13 -2.38,-11.8199 -2.93,-6.13 -9.6,-9.52 -12.24,-15.8201 -2.38,-8.7899 1.56,-17.4099 4.14,-25.6599 1.55,-4.4 -0.73,-8.8 -0.74,-13.24 -0.34,-9.39 1.49,-18.6901 1.5,-28.0801 0.22,-12.84 -2.2,-25.51 -3.73,-38.21 -3.5,-28.4401 -8.74,-56.74 -17.11,-84.17 -2.41,5.66 -3.97,11.6299 -5.59,17.56 -6.2,23.99 -9.38,48.61 -14.36,72.86 -4.69,22.42 -11.62,44.27 -17.73,66.3199 -4.85,17.42 -9.14,36.16 -22.05,49.65 0.35,9.97 -3.62,20.38 -11.88,26.3301 -7.61,5.9399 -19.35,6.3799 -26.93,0.2 -2.92,-8.29 0.36,-17.34 4.23,-24.8 3.37,-6.6599 7.65,-13.13 8.88,-20.62 0.86,-6.0399 -1.19,-12.01 -0.77,-18.0599 0.84,-13.48 4,-26.66 6.12,-39.9601 4.55,-27.2699 9.75,-54.48 12.07,-82.0499 0.41,-3.77 1.55,-7.4 3.02,-10.87 6.14,-13.3301 2.83,-28.39 1.4,-42.37 -1.08,-7.88 -1.36,-15.8701 -0.93,-23.8101 0.17,-3.36 1.16,-6.65 0.99,-10.0099 -1.99,-3.77 -5.93,-6.09 -7.73,-9.97 -1.5,-6.66 0.94,-13.31 2.14,-19.81 1.58,-5.95 2.75,-12.01 3.2,-18.15 1.45,-17.0601 3.56,-34.05 6.44,-50.92 -7.65,16.87 -5.22,36.12 -11.21,53.46 -4.08,-2.52 -8.35,-5.38 -13.37,-5.16 -6.77,-1.1 -13.25,2.2401 -18.72,5.8701 0.01,-13.8101 1.4,-27.5601 2.8,-41.27 0.74,-6.48 3.31,-12.53 4.88,-18.81 0.75,-3.01 1.58,-6.08 1.41,-9.2 -0.41,-4.49 -3.16,-8.48 -2.98,-13.05 0.06,-5.47 4.85,-9.47 5.24,-14.86 0.52,-7.02 -0.15,-14.06 -0.86,-21.03 -0.41,-5.95 -0.78,-12.12 1.12,-17.86 2.96,-9.4 7.69,-18.17 10.32,-27.69 2.82,-10.27 4.17,-20.89 7.31,-31.08 10.1,-4.83 21.28,-6.5 32.02,-9.34 7.1,-1.73 15.19,-2.5 20.54,-8.04 3.2,-3.18 6.64,-6.08 10.12,-8.94 0.61,-5.3 1.88,-10.63 1.23,-15.99 -0.92,-4.11 -2.98,-7.85 -4.34,-11.81 -1.96,-0.75 -3.9,-1.51 -5.79,-2.4 -3.31,-5.18 -4.65,-11.6299 -2.73,-17.56 1.76,0.15 3.52,0.32 5.28,0.4901 -0.85,-8.19 -1.38,-16.97 2.62,-24.48 3.4,-7.16 10.51,-11.9 18.06,-13.74 m -16.32,98.42 c 0.2,4.01 -0.64,8.21 0.88,12.06 5.3,16.63 3.84,34.56 9.42,51.12 0.65,-4.74 0.35,-9.5699 0.96,-14.3199 0.57,-3.65 -0.61,-7.31 -0.16,-10.9301 1.65,-3.12 4.03,-5.79 5.83,-8.83 -1.57,-1.57 -3.38,-2.82 -5.11,-4.17 2.57,-3.8199 4.93,-8.1899 8.89,-10.74 -2.89,-4.37 -6.49,-8.2 -10.38,-11.68 -4.27,-3.92 -6.85,-9.29 -8.49,-14.77 -2.52,3.58 -1.68,8.15 -1.84,12.26 m 71.67,142.87 c -0.79,13.9301 0.86,28.2 5.87,41.28 -0.46,-13.89 -2.23,-27.86 -5.87,-41.28 z"
         id="path245" />
      <path
         stroke="#000000"
         stroke-width="0.0938"
         d="m 1411.78,643.79 c 3.7899,-8.13 11.15,-14.67 20.2,-15.99 5.1,-0.26 10.5601,-0.53 15.17,2.09 5.16,2.49 8.64,7.25 11.59,11.99 3.23,5.76 5.5,12.33 10.62,16.77 1.74,1.86 4.39,3.47 4.5701,6.29 0.35,3.75 -4.4501,6.11 -3.42,9.98 0.59,2.77 3.37,4.09 5.48,5.6 2.1801,1.53 5.22,3.26 4.45,6.45 -0.7699,9.5601 -1.34,19.78 2.91,28.67 2.42,4.98 9.8,2.9 12.67,7.47 2.9199,4.48 4.35,9.73 5.72,14.84 3.63,14.22 5.52,28.83 9.76,42.91 0.8199,4.75 1.14,9.58 1.89,14.35 0.52,6.83 4.24,12.73 6.48,19.06 4.21,11.91 6.97,24.33 8.21,36.91 0.7101,10.74 -0.21,21.8 -3.9099,31.97 -1.27,3.94 -4.51,6.75 -8.36,8.06 -2.04,2.91 -4.39,5.63 -6.1101,8.7599 -0.96,2.57 -1.2699,5.32 -1.1499,8.0601 1.2,14.86 -0.51,29.75 -0.24,44.65 -0.8101,11.61 -0.64,23.26 -1.05,34.9 -1.0601,10.45 -0.34,20.98 -0.55,31.47 0.2001,24.05 -1.96,48.03 -3.7,71.9901 -1.95,24.09 -4.27,48.21 -8.88,71.96 -1.33,6.16 -2.75,13.08 -8.1801,17.04 -0.83,1.5499 -0.7799,4.21 -3.01,4.36 -5.08,0.88 -10.47,1.2899 -15.48,-0.14 -3.0699,-1.09 -3.46,-4.6901 -4.45,-7.3201 -1.33,-4.6699 -5.5701,-8.08 -5.84,-13.12 -1.13,-12.86 2.2799,-25.5499 3.0499,-38.34 1.35,-14.15 1.86,-28.36 3.01,-42.52 0.76,-14.0299 3.53,-27.88 3.61,-41.95 0.73,-12.38 -0.14,-24.75 -0.4399,-37.12 -0.51,-10.4 -1.3301,-20.8 -3.4301,-31 -2.72,-14.02 -6.71,-27.76 -10.85,-41.41 -2.51,2.64 -4.09,5.97 -5.04,9.46 -5.6799,18.96 -9.96,38.3 -14.7899,57.49 -0.4501,1.62 -0.9401,3.21 -1.36,4.85 -5.51,19.95 -11.42,39.78 -16.62,59.8099 -4.8201,18.77 -9.42,37.5901 -14.0801,56.4 -2.8099,10.73 -6.28,21.27 -8.9,32.0601 -2.0499,7.86 -4.11,16.5599 -10.87,21.8099 -3.3999,2.29 -2.83,6.9301 -5.09,9.97 -5.1899,1.36 -10.87,1.86 -16.09,0.4301 -4.03,-1.25 -4.76,-5.88 -5.91,-9.3201 -1.0699,-3.85 -3.42,-7.3899 -3.5,-11.45 0.38,-4.72 2.28,-9.21 2.29,-13.98 0.02,-5.98 0.47,-11.97 2.13,-17.73 5.1499,-20.03 9.83,-40.17 14.1499,-60.4 2.9701,-13.7 7.16,-27.11 9.63,-40.91 1.6101,-8.67 2.8401,-17.49 6.14,-25.72 2.0601,-5.17 4.8401,-10.75 2.8201,-16.39 -3.9401,-10.99 -7.27,-22.18 -11.11,-33.2 -1.5701,-5.5699 -4.12,-10.92 -4.6001,-16.74 -0.36,-3.29 0.8301,-6.44 1.05,-9.67 -1.1899,-3.38 -3.71,-6.51 -3.01,-10.3 0.76,-6.67 2.58,-13.17 3.34,-19.83 0.9401,-4.07 1.75,-8.17 2.1801,-12.32 2.09,-11.58 -1.04,-23.17 -0.58,-34.79 -0.29,-27.8 0.9299,-55.57 2.1,-83.33 0.3099,-6.84 0.87,-13.66 1.33,-20.49 0.62,-4.96 1.03,-10.31 3.9501,-14.53 5.08,-5.79 13.7999,-5.5099 19.59,-10.2 2.24,-12.8 -7.54,-23.79 -7.04,-36.47 -0.27,-6.2 2.11,-12.14 5.77,-17.05 5.7599,-7.4599 7.06,-17.1199 11.7799,-25.1499 m 38.85,82.6 c -7.01,1.65 -14.65,2.66 -21.4401,-0.31 -3.34,-1.49 -5.6499,-4.36 -8.2,-6.83 0.84,17.44 2.7,34.83 4.8201,52.15 5.84,11.73 12.61,23.03 20.2799,33.67 1.26,-13.17 7.99,-25.04 9.2001,-38.19 0.64,-6.48 3.9099,-12.37 4.1499,-18.91 0.4301,-4.81 0.1001,-9.6299 0.4501,-14.4399 0.5,-4.96 -0.8101,-9.86 -1.42,-14.75 -2.23,2.8499 -4.19,6.4199 -7.84,7.6099 m 32.8099,55.82 c -0.3799,2.27 -0.6899,4.55 -0.72,6.87 -0.33,7.21 -2.9199,14.61 -0.35,21.71 3.45,9.63 8.86,18.42 12.13,28.13 3.96,9.16 7.15,18.61 10.47,28.03 4.26,-1.2 6.01,-6.31 5.0601,-10.3 -1.1901,-4.6801 -2.4401,-9.38 -4.4601,-13.77 -1.7999,-4.3 -4.24,-8.34 -5.4399,-12.86 -1.6901,-5.89 -2.55,-12 -4.54,-17.8 -2.47,-6.6899 -5.46,-13.2599 -6.6699,-20.33 -0.5,-3.04 -1.8501,-5.82 -2.9801,-8.65 l -0.03,0.03 0.1799,-0.87 c -0.6599,-0.05 -1.99,-0.14 -2.6501,-0.19 m -82.4099,15.67 c -1.0901,11.35 -1.1901,22.78 -1.92,34.16 -1.52,26.41 -5.1799,52.72 -4.7,79.23 -1.4601,6.5 -1.9301,13.21 -3.27,19.75 -0.13,1.96 1.89,2.77 3.15,3.86 0.1,-8.02 1.7799,-15.89 2.6799,-23.83 0.74,-3.77 1.35,-7.72 4.16,-10.6 -0.64,-0.2 -1.91,-0.61 -2.55,-0.81 4.79,-23.6 3.4801,-47.91 8.0601,-71.54 2.0401,-10.48 -3.16,-20.31 -5.61,-30.22 m 39.35,92.82 c 10.45,-0.1 20.9,-0.77 31.28,-1.98 -6.8301,-14.33 -13.5901,-28.68 -20.5901,-42.92 -3.9199,14.87 -6.9899,29.96 -10.6899,44.9 z"
         id="path247" />
      <path
         stroke="#000000"
         stroke-width="0.0938"
         d="m 1119.55,656.51 c 12.8099,-11.59 32.23,-11.54 44.6,-23.77 2.8099,6.25 7.2,11.57 10.71,17.42 8.5,14.9 13.27,31.4901 20,47.19 -0.04,-10.2599 -0.14,-20.53 -0.37,-30.79 -2.78,-2.17 -5.5,-4.41 -8,-6.89 3.1,-3.14 6.24,-6.25 9.38,-9.36 4.9401,1.31 10.25,4.7 10.49,10.36 -0.66,1.56 -1.64,3.23 -0.77,4.94 2.74,8.74 5.17,17.57 7.8301,26.34 6.62,22.88 6.73,46.89 11.14,70.19 1.36,9.78 3.3799,19.51 3.86,29.4 0.72,-0.28 1.45,-0.54 2.2,-0.8 1.02,-24.25 -2.35,-48.42 -2.11,-72.66 0.07,-11.09 -3.9301,-21.55 -6.52,-32.18 -3.51,-12.06 -6.6,-24.6 -13.6899,-35.15 -1.63,-2.27 -1.8401,-5.07 -2.16,-7.73 2.65,3.9 6.5599,6.71 10.8099,8.66 4.38,2.04 8.87,3.86 13.0601,6.29 4.12,2.34 8.76,4.97 10.1799,9.86 2.78,8.95 1.54,18.53 0.8701,27.71 -0.9401,8.79 -2.29,17.59 -2.0701,26.45 0.3,10.75 1.38,21.51 3.78,32 2.91,12.67 10.3099,23.56 15.7999,35.17 5.9501,11.46 7.9901,25.4301 3.3,37.6801 -2.1899,5.8799 -6.86,10.3799 -12.16,13.53 -0.45,1.97 -0.8999,3.93 -1.39,5.9 -1.3199,4.14 -3.0599,9.31 -7.8899,10.34 -1.54,-1.58 -3.13,-3.11 -4.75,-4.57 -4.75,8.04 -1.2401,17.36 -0.3501,25.89 1,5.94 -2.71,11.22 -2.9199,17.05 -2.8,21.91 -0.48,44.01 -1.2201,66.01 -1.09,11.6 -0.8099,23.31 -2.0499,34.92 -0.26,2.17 -0.59,4.33 -0.91,6.51 -1.35,9.17 -3.6699,18.25 -3.78,27.57 -0.2699,12.15 2.6001,24.04 4.4501,35.98 2.12,11.89 2.6699,23.99 2.3199,36.04 0.11,7.99 -0.37,17.1 5.1901,23.5599 2.86,3.7201 8.01,3.38 12.0399,4.92 7.9,2.22 15.3,7.87 17.5,16.0601 -7.7,4.8999 -17.11,5.33 -25.95,5.5699 -10.38,-0.15 -21.59,-1.24 -29.9301,-8.0699 -8.73,3.1799 -17.87,0.6499 -26.5599,-1.2201 1.65,-12.14 2.5,-24.45 1.41,-36.6799 -1.3501,-21.42 -6.1801,-42.4 -8.7201,-63.6801 -3.58,-0.01 -7.1599,-0.01 -10.74,0 2.89,20.4401 8.38,40.7101 7.52,61.51 -0.3199,8.5 -2.34,17.16 -7.59,24.02 1.29,4.21 2.51,8.65 1.4399,13.0699 -1.1499,5.4501 -1.64,11.01 -2.6699,16.4701 -2.5901,3.48 -7.15,4.95 -11.24,5.88 -7.0701,0.8999 -14.9801,0.83 -21.05,-3.4 -1.51,-4.16 -1.77,-8.74 -1.53,-13.13 0.25,-4.55 3.92,-7.8 5.28,-11.9501 0.85,-4.08 -0.5599,-8.12 -1.5699,-12.0199 -2.2101,-7.4701 -1.3501,-15.5 -3.99,-22.86 -2.9501,-8.52 -6.9701,-16.8601 -7.51,-26 -0.8101,-11.9501 0.5499,-24.04 -1.77,-35.8701 -21.2101,-0.25 -42.42,0.17 -63.63,-0.23 -0.13,-11.38 0.22,-22.77 -0.1801,-34.15 0.36,-29.2 0.08,-58.42 0.17,-87.62 12.74,0 25.48,-0.05 38.22,0.06 4.08,-8.85 11.92,-16.77 11.13,-27.16 -0.92,-5.3701 -1.05,-10.79 -0.79,-16.22 0.62,-14.42 0.65,-28.86 0.6901,-43.3 -0.16,-13.7 0.28,-27.43 -0.6,-41.1 -0.29,-10.39 -1.2001,-20.7599 -1.15,-31.16 -0.42,-16.32 0.73,-32.62 1.92,-48.89 1.1799,-10.18 2.2799,-20.38 3.8899,-30.51 1.3699,-7.6399 3.39,-15.7699 9.1,-21.3999 m -19.01,253.56 c 0.14,1.8 0.89,3.47 1.7899,5.04 0.11,1.81 0.2001,3.65 0.29,5.49 5.1801,-0.16 10.47,1.21 15.55,-0.25 0.2799,-0.47 0.8199,-1.4 1.09,-1.86 0.5599,-2.92 1.5,-5.92 0.88,-8.89 -1.3,-3.19 -4.8101,-5.22 -8.17,-5.39 -4.7099,-0.64 -7.6799,3.85 -11.4299,5.86 z"
         id="path249" />
      <path
         stroke="#000000"
         stroke-width="0.0938"
         d="m 600.3,657.32 c 9.46,-5.55 21.09,-5.53 31.45,-2.92 7.64,2.5099 12.15,10.05 14.64,17.2599 5.15,16.36 2.89,33.73 0.85,50.42 -5.86,4.78 -12.15,9.07 -18.88,12.54 -4.49,7.77 -9.14,15.45 -13.74,23.15 -7.14,-8.43 -14.22,-16.91 -21.19,-25.48 2.49,-3.47 0.89,-8.17 -2,-10.85 -1.68,-0.92 -2.98,0.27 -3.87,1.62 -0.96,2.27 -1.7,4.65 -2.8,6.87 -4.94,-1.62 -5.51,-8.24 -10.08,-10.67 1.34,-11.67 2.93,-23.41 6.61,-34.6 3.3,-10.6999 9,-21.5699 19.01,-27.3399 z"
         id="path251" />
      <path
         stroke="#000000"
         stroke-width="0.0938"
         d="m 807.67,693.67 c 13.07,-6.72 25.15,-15.19 38.35,-21.7 2.16,5.97 4.51,11.88 7.37,17.5601 3.47,6.78 4.85,14.46 8.82,21.0099 1.41,-4.2 2.72,-8.43 4.07,-12.64 -1.75,-1.54 -3.27,-3.31 -4.4,-5.34 2.92,-2.29 5.9,-4.49 8.92,-6.64 1.95,1.84 3.91,3.7 5.92,5.5 0.01,1.34 0.03,2.7 0.0601,4.06 -0.84,0.14 -2.51,0.44 -3.35,0.58 1.12,4.59 2.32,9.16 3.21,13.8 1.04,4.85 0.39,9.85 0.92,14.77 1.63,-10.33 4.28,-20.44 7.03,-30.5 1.94,-6.84 5.41,-13.28 6.3199,-20.38 12.2,4.31 21.05,14.83 33.5,18.67 10.02,3.69 22.6,6.47 27.44,17.19 2.67,7.59 4.06,15.56 4.88,23.54 1.41,18.17 1.74,36.41 1.44,54.63 -0.66,12.11 0.09,24.5099 -2.89,36.36 -3.53,10.01 -10.78,17.98 -17.05,26.33 -5.63,7.75 -11.72,15.2 -16.74,23.38 2.67,5.35 7.85,8.67 11.17,13.51 1.98,2.61 -0.43,5.41 -1.31,7.94 -2.78,7.9 -1.79,16.51 -1.0699,24.69 0.59,6.09 1.67,12.12 2.87,18.11 2.68,13.71 4,27.65 6.23,41.44 0.77,7.12 1.86,14.22 2.43,21.37 2.32,18.98 3.85,38.05 5.65,57.08 0.7,8.6901 3.41,17.21 2.63,26 -2.1801,40.02 -8.97,80.35 -2.32,120.3201 -1.87,0.73 -3.73,1.5 -5.57,2.2899 5.89,11.3101 15.43,20.02 22.98,30.15 3.85,5.04 6.88,10.79 7.98,17.09 -4.28,1.36 -8.65,2.6801 -13.18,2.62 -10.47,0.01 -20.35,-4.21 -29.35,-9.1899 -5.7,-2.89 -5.12,-10.3301 -6.34,-15.6801 -4.69,-2.33 -9.72,-3.97 -14.16,-6.77 -1.96,-1.3199 -4.36,-3.0699 -3.78,-5.7799 1.4901,-26.0801 -3.24,-51.99 -2.85,-78.05 -0.01,-6.41 1.18,-12.7 2.04,-19.02 2.01,-14.02 -1.84,-27.96 -1.95,-41.97 -0.1201,-7.39 2.12,-14.66 1.42,-22.05 -0.61,-6.4199 -7.31,-9.9099 -8.56,-16.08 -0.8,-3.55 -0.71,-7.26 -1.93,-10.7 -1.58,-4.11 -5.36,-6.9601 -6.67,-11.2001 -1.94,-6.21 -1.22,-12.84 -2.29,-19.2 -3.68,-21.74 -14.41,-41.3 -23.3,-61.21 -5.07,10.68 -5.01,22.87 -4.5,34.43 0.67,8.57 1.08,17.17 0.64,25.77 -1.5,25.88 -8.04,51.29 -7.84,77.3 -0.09,32.8199 -2.31,66.0499 4.14,98.46 0.58,4.0499 2.7,7.98 2.08,12.14 -1.7,-0.2001 -3.36,-0.5901 -5.01,-0.9301 1.22,16.23 12.89,30.66 9.47,47.36 -5.07,2.36 -10.53,4.48 -16.23,3.99 -7.88,-0.4199 -15.23,-5.4299 -18.78,-12.4199 -1.34,-3.89 -1.24,-8.1 -2,-12.1 -1.07,-7.3 -3.63,-15.2001 0.18,-22.15 -1.33,-0.3301 -2.64,-0.63 -3.95,-0.92 -9.4901,-12.15 -5.6,-28.33 -7.27,-42.49 -5.86,-47.6801 -6.88,-95.75 -8.88,-143.69 -0.45,-10.92 -1.04,-21.85 -2.63,-32.66 -1.78,-16.04 -4.07,-32.03 -5.17,-48.14 -0.06,-11.23 -0.32,-22.52 1.37,-33.65 1.02,-6.49 3.28,-12.68 4.85,-19.04 -4.61,-6.57 -10.74,-11.83 -16.19,-17.66 -11.1,-11.23 -20.18,-25.68 -20.39,-41.93 -0.54,-15.96 1.5,-31.81 2.85,-47.67 0.49,-5.52 0.95,-11.04 1.54,-16.54 1.45,-11.01 2.2401,-22.72 8.26,-32.38 C 785.76,704.57 797.2,699.25 807.67,693.67 m 56.14,138.16 c -1.32,7.19 -3.32,14.24 -4.69,21.42 7.72,1.03 15.58,1.27 23.33,0.51 -1.88,-7.09 -3.31,-14.31 -3.42,-21.67 -2.83,2.48 -5.51,5.1299 -8.23,7.72 -2.39,-2.62 -4.54,-5.43 -6.99,-7.98 z"
         id="path253" />
      <path
         stroke="#000000"
         stroke-width="0.0938"
         d="m 549.03,749.71 c 13.66,-3.1 28.64,-3.87 40.2,-12.69 l 1.05,-0.88 c 1.12,25.59 1.5099,51.28 -0.79,76.82 -1.68,18.28 -5.44,36.42 -5.08,54.85 17.67,-4.78 35.34,-9.55 53.01,-14.33 -1.83,-37.88 -3.71,-75.76 -5.33,-113.65 4.2599,3.78 9.42,6.41 14.8,8.21 8.87,2.92 17.82,5.67 26.43,9.31 3.39,1.59 5.33,4.92 7.75,7.62 11.54,13.4301 23.04,26.89 34.72,40.2 5.06,5.91 11.15,10.85 16.13,16.85 4.74,5.9 9.19,13.68 6.81,21.48 -3.62,9.47 -12.51,15.21 -19.34,22.2 -7.64,7.91 -14.34,16.91 -23.35,23.37 -3.33,2.52 -7.95,3.62 -11.86,1.81 -2.67,-1.5 -4.64,-3.91 -6.84,-5.99 2.0099,9.97 8.67,17.94 13.12,26.84 2.05,4.55 2.08,9.63 2.72,14.49 3.23,26 7.78,51.8101 11.22,77.77 1.14,8.74 2.28,17.47 3.12,26.24 -13.04,0.8101 -22.6,11.01 -35.02,13.78 6.74,11.4399 4.03,25.14 7.03,37.55 2.29,10.0699 8.06,18.8799 10.86,28.7899 6.58,22.8301 4.28,47.0701 10,70.05 2.23,9.4199 8.24,17.1899 12.75,25.5599 5.63,10.4301 6.9,22.4601 8.07,34.0601 0.59,8.66 1.2599,17.34 1.28,26.03 0.32,1.9199 -1.53,2.75 -2.92,3.5199 -4.7,2.4401 -10.3,2.53 -15.37,1.38 -4.9,-1.2899 -9.89,-4.2899 -11.6,-9.3099 -2.2,-6.71 -0.56,-13.83 0.31,-20.62 1.39,-9.6 2.27,-19.53 -0.24,-29.03 -4.67,-19.21 -16.8,-35.3099 -24.31,-53.37 -4.08,-9.15 -6.36,-19.4 -13.07,-27.12 -6.52,13.5 -15.62,25.71 -20.77,39.88 -3.35,8.8 -4.93,18.1899 -5.16,27.58 -0.38,14.0801 0.04,28.27 -2.2,42.24 -1.14,5.55 -2.2,11.55 -5.74,16.14 -8.31,5.14 -20.72,3.87 -26.6,-4.4099 8.76,-37.4301 21.43,-73.92 28.09,-111.8501 4.82,-26.0699 6.56,-52.6499 5.6,-79.13 -5.92,-0.71 -11.1,2.76 -16.7,3.9701 -8.04,-20.49 -15.09,-41.3401 -22.24,-62.15 -5.56,-16.41 -10.85,-32.92 -15.59,-49.59 -0.98,-3.33 -1.54,-6.82 -3.14,-9.92 -0.6201,-0.03 -1.8701,-0.08 -2.4901,-0.11 -4.63,0.21 -9.46,1.56 -13.92,-0.34 -0.01,-7.96 -0.26,-15.91 0.25,-23.85 0.57,-8.8 1.48,-17.63 0.94,-26.45 -1.93,8.73 -3.62,17.53 -4.63,26.42 -1.84,16.61 -2.36,33.66 1.38,50.06 0.84,4.07 2.72,7.86 3.45,11.96 -0.83,2.44 -3.86,1.07 -5.41,0.28 -1.3199,-2.95 -2.85,-6.5 -6.41,-7.07 -1.98,8.3 -0.91,17.08 -4.04,25.13 -2.7401,-0.63 -5.58,-1.78 -6.8,-4.53 -5.29,-10.68 -0.06,-22.81 -2.74,-33.92 -3.08,-0.46 -6.15,-1 -9.19,-1.67 -0.11,-5.95 0.22,-11.9 0.58,-17.83 1.04,-15.3 2.2,-30.59 3.34,-45.88 1.48,-22.45 3.12,-44.88 5.06,-67.29 1.06,-13.09 2.48,-26.16 4.28,-39.18 1.6,-11.35 3.41,-22.81 7.66,-33.52 1.2101,-3.1 3.3301,-6.24 6.8801,-6.76 m 124.54,62.89 c -2.74,4.3 -5.18,8.92 -7.8,13.34 -1.22,5.65 -7.08,10.6 -4.41,16.67 1.35,4.69 6.12,6.7 9.94,9.02 4.14,2.01 7.58,5.11 11.36,7.69 0.94,1.04 2.06,-0.12 2.86,-0.67 4.25,-3.39 8.37,-6.94 12.57,-10.4 2.8,-2.32 6.24,-3.74 8.92,-6.21 2.72,-2.54 1.19,-6.64 0.26,-9.63 -5.65,-7.94 -14.98,-11.56 -22.97,-16.56 -3.33,-1.59 -6.82,-4.71 -10.73,-3.25 z"
         id="path255" />
      <path
         stroke="#000000"
         stroke-width="0.0938"
         d="m 182.01,750.02 c 4.41,-4.94 12.05,-6.45 18.19,-4.24 4.02,1.14 7.12,4.97 7.24,9.18 0.71,11.8 -5.99,22.42 -6.33,34.11 4.49,1.75 8.39,4.59 12.42,7.18 5.14,3.33 11.57,3.99 16.49,7.7 3.67,2.59 4.18,7.42 5.07,11.47 1.56,12.44 1.34,25.03 1.13,37.54 -0.43,5.24 -0.04,10.86 -2.58,15.65 -4.3,7.98 -11.32,14.23 -15.43,22.27 0.55,3.45 3.67,5.83 5.41,8.77 -1.27,1.97 -3.14,3.8199 -3.23,6.3199 -0.72,6.19 1.9,12.02 3.18,17.95 4.03,21.81 5.39,43.98 8.06,65.96 0.53,6.68 0.23,13.4 -0.27,20.08 -1.47,16.22 -2.92,32.6299 -0.42,48.83 -0.69,0.2999 -2.07,0.8999 -2.76,1.2 4.68,8.72 13.96,14.71 15.95,24.88 -8.01,2.36 -16.56,-0.34 -23.12,-5.1 -1.39,-2.16 -1.65,-4.8101 -2.34,-7.23 -3.25,-1.78 -9.52,-2.53 -8.82,-7.4501 0.97,-15.72 -3.14,-31.45 -0.53,-47.11 0.72,-4.89 0.37,-9.85 -0.37,-14.7 -0.86,-5.4301 -0.35,-10.9 0.3,-16.3 0.7,-4.31 -3.55,-7.07 -4.33,-11.01 -0.6,-3.1 -1.57,-6.1299 -3.31,-8.78 -2.34,-3.64 -1.65,-8.16 -2.44,-12.22 -1.27,-7.02 -3.98,-13.67 -6.91,-20.1299 -1.54,-3.33 -2.79,-6.83 -4.92,-9.82 -3.13,7.62 -1.7,15.99 -1.68,23.98 0.45,11.41 -2.28,22.6 -3.33,33.91 -0.9,7.07 -0.67,14.21 -0.74,21.32 -0.39,15.45 -0.25,31.0701 3.49,46.16 -0.75,-0.03 -2.24,-0.1 -2.98,-0.14 1.26,7.98 6.74,15.51 4.82,23.77 -6.15,3.25 -14.39,0.91 -18.85,-4.14 -1.91,-4.73 -0.72,-10.08 1.15,-14.63 1.13,-1.89 -0.7,-3.59 -1.45,-5.2 -2.65,-4.2001 -3.62,-9.14 -4.37,-13.9601 -1.54,-10.6599 -2.46,-21.4 -3.16,-32.14 -0.82,-8.98 -0.62,-18 -1.46,-26.96 -0.49,-12.98 -0.45,-26.03 -2.33,-38.91 -1.9,-15.25 -4.16,-31.09 0.07,-46.15 1.24,-3.32 -2.04,-5.43 -3.93,-7.57 -6.25,-6.18 -12.57,-13.26 -13.7,-22.36 -1.12,-10.67 1.22,-21.28 1.71,-31.92 0.92,-6.9 1.01,-14.37 4.88,-20.41 4.63,-5.82 11.88,-8.39 18.1,-12.07 5.31,-3.2 10.69,-6.29 16.12,-9.28 0.29,-6.78 0.45,-13.61 -0.69,-20.32 -1,-6.0498 -0.7,-12.8698 3,-17.9798 z"
         id="path257" />
      <path
         stroke="#000000"
         stroke-width="0.0938"
         d="m 1770.11,752.08 c 4.23,-2.35 9.9,-2.2 13.5701,1.15 4.47,4.05 7.74,9.39 10.0099,14.94 1.9,4.73 -0.72,9.39 -2.83,13.51 -1.17,2.34 -2.63,5.61 -0.34,7.78 5.86,6.23 14.76,7.55 22.04,11.38 2.4199,3.22 3.62,7.21 4.71,11.06 3.25,14.45 3.5,29.36 3.33,44.12 0.01,19.94 -4.39,39.6 -4.46,59.52 1.1799,0.3 2.38,0.61 3.61,0.93 0.03,3.23 -0.36,6.65 1.02,9.69 1.2999,2.9301 3.04,5.64 4.59,8.46 6.49,0.32 13.05,-0.48 19.52,0.4 1.08,4.53 0.24,9.33 0.48,13.98 0.02,16.13 -0.01,32.27 0.02,48.41 -11.01,0.31 -22.02,0.17 -33.03,0.11 -1.53,8.9 0.78,18.32 -2.85,26.85 -2.86,6.1801 -3.03,13.0601 -4.5,19.62 -1.33,4 2.89,7.05 2.55,10.99 -0.12,1.9301 -0.4701,3.85 -0.74,5.78 -3.8,1.13 -7.8601,2.15 -11.78,1.08 -1.97,-0.5599 -4.73,-1.2999 -4.8201,-3.75 -0.83,-4.7 -2.23,-9.47 -1.2,-14.25 -1.51,-3.15 -3.05,-6.38 -3.3,-9.9099 -1.0499,-10.04 1.29,-20.0001 2.9701,-29.84 0.24,-1.26 0.5099,-2.5 0.8099,-3.73 -1.6,-0.28 -3.2,-0.58 -4.77,-0.68 -1.48,1.13 -1.13,3.24 -1.53,4.87 -0.97,7.89 -2.6299,15.68 -3.3899,23.6 -0.9301,7.77 -0.51,15.6 0.13,23.38 -4.51,1.15 -9.1801,1.4299 -13.78,0.89 -6.24,4.76 -14.5801,5.85 -22.14,4.5699 -2.9301,-0.63 -6.13,-1.45 -8.03,-3.91 2.89,-6.09 9.87,-7.6799 15.64,-9.71 4.26,-2.88 3.8101,-8.84 3.9,-13.37 -0.4,-8.8 0.9,-17.53 2.59,-26.14 0.91,-6.61 0.9301,-13.38 -0.26,-19.95 -1.9199,-9.5099 -1.89,-19.27 -2.2899,-28.92 -0.4601,-11.99 1.2899,-24.21 -1.6901,-35.98 -1.27,-5.58 1.64,-11.21 -0.13,-16.77 -1.48,0.38 -2.77,1.79 -4.36,1.42 -2.5,-2.18 -2.3101,-6.06 -4.59,-8.41 -1.7101,-1.95 -3.87,-3.6 -4.87,-6.04 -2.3201,-5.63 -1.86,-12.12 0.5399,-17.64 2.8101,-6.55 7.02,-12.49 8.87,-19.44 2.55,-10.27 2.9601,-21.06 0.9401,-31.45 0.08,-5.37 -1.37,-11.65 2.15,-16.24 4.5699,-4.12 11.5299,-4.63 15.58,-9.44 1.3101,-1.29 1.37,-3.16 1.36,-4.87 -0.26,-0.33 -0.79,-1.01 -1.0599,-1.35 -3.7101,-4.34 -6.2001,-9.52 -8.37,-14.75 -1.05,-2.45 -1.9501,-5.1801 -1.2101,-7.84 1.45,-6.09 6.01,-11.11 11.39,-14.11 z"
         id="path259" />
      <path
         stroke="#000000"
         stroke-width="0.0938"
         d="m 301.43,936.52 c 1.88,-2.27 4.59,-3.66 7.46,-4.2 5.81,-1.25 12.6,-1.05 17.26,3.14 -5,8.33 -1.53,19.96 -9.46,26.77 -1.59,-2.29 -3.64,-5.52 -1.73,-8.21 2.45,-2.56 0.51,-6.1 0.26,-9.08 -1.14,0.96 -2.3,1.91 -3.33,3 -2.34,2.18 -1.88,5.81 -1.18,8.62 2.25,7.12 6.92,13.16 9.4,20.2 -3.41,0.05 -7.08,0.17 -10.07,-1.75 -4.63,-2.88 -9.79,-6.29 -11.29,-11.88 -1.17,-4.37 -2.58,-8.71 -3.01,-13.22 -0.23,-5.23 5.38,-8.29 5.69,-13.39 z"
         id="path261" />
    </g>
    <g
       id="_x23_466591ff"
       style="opacity:1"
       transform="matrix(0.17180751,0,0,0.14975556,-22.339009,-20.126795)">
      <path
         fill="#466591"
         stroke="#466591"
         stroke-width="0.0938"
         d="m 938.27,610.8 c 0.74,0.87 2.05,1.69 1.57,3.05 -0.82,1.34 -2.41,1.15 -3.65,0.64 0.6,-1.28 1.35,-2.48 2.08,-3.69 z"
         id="path270" />
      <path
         fill="#466591"
         stroke="#466591"
         stroke-width="0.0938"
         d="m 222.57,1094.5 c 5.4,-3.3 12.01,-5.5699 18.38,-4.29 1.2,0.1801 3.05,1.3 2.3,2.78 -2.77,8.77 -10.88,14.14 -15.17,22.03 0.82,0.72 1.64,1.45 2.47,2.2 -2.93,19.53 -0.12,39.23 1.3,58.76 0.47,5.5 -0.9,10.89 -1.48,16.3201 -1.54,19.3099 -3.77,38.58 -6.68,57.74 -1.19,6.33 -4.38,12.38 -3.66,19 -0.04,2.76 1.76,4.98 3.19,7.1899 -1.59,2.89 -5.4,5.0701 -5.09,8.65 3.71,6.99 9.12,12.92 13.62,19.41 4.86,6.9199 3.82,15.7799 4.25,23.77 -0.22,12.6699 0.75,25.6899 -2.77,38.0199 -1.45,6.37 -8.42,8.55 -13.9,10.27 -5.81,1.5 -9.98,6.09 -15.29,8.61 -1.15,0.74 -2.7,1.14 -3.49,2.3101 1.27,10.4199 6.16,20.16 6.61,30.73 -0.04,2.99 -0.03,6.52 -2.45,8.7 -6.49,6.02 -18.12,5.25 -23.59,-1.75 -3.98,-6.8899 -3.17,-15.21 -1.69,-22.6899 0.54,-4.91 1.52,-10.36 -0.66,-14.98 -7.64,-4.76 -15.4,-9.4401 -23.43,-13.5701 -5.83,-3.1899 -11.96,-7.73 -13.09,-14.74 -2.16,-10.86 -2.6,-21.98 -3.58,-32.98 -0.73,-7.23 -0.63,-14.95 2.89,-21.49 3.21,-5.25 7.18,-10.04 11.7,-14.21 1.63,-1.76 4.18,-3.86 3.11,-6.53 -6.02,-19.6901 0.01,-40.15 1.14,-60.08 1.37,-28.26 1.68,-56.63 5.64,-84.6801 1.04,-5.8 2.36,-11.9399 6.45,-16.4301 -1.92,-5.2799 -4.4,-11.38 -1.81,-16.83 3.88,-4.35 10.17,-6.65 15.93,-5.36 1.61,0.4 3.42,1.64 3.4,3.49 0.09,6.72 -3.37,12.76 -4.79,19.1901 -0.64,1.6899 1.26,2.47 2.19,3.5 -3.94,15.49 -3.45,31.6 -3.28,47.45 -0.08,9.66 0.55,19.34 2.09,28.89 1.01,7.6799 2.24,15.38 2.01,23.16 -0.03,8.0699 -1.71,16.61 1.76,24.25 4.63,-8.2201 8.64,-16.88 11.08,-26.02 1.29,-4.66 0.9,-9.5901 2.12,-14.25 1.16,-2.73 3.49,-4.9501 3.71,-8.05 0.26,-3.13 2.03,-5.72 3.65,-8.28 2,-2.98 1.03,-6.7 0.8,-9.99 -0.83,-5.9399 0.57,-11.84 0.79,-17.75 0.47,-7.37 -1.72,-14.61 -1.19,-21.99 0.54,-10.99 1.74,-21.97 1.6,-32.99 -0.79,-5.25 5.52,-6.16 8.92,-8.26 0.82,-2.9198 0.88,-6.6999 3.99,-8.2299 z"
         id="path272" />
      <path
         fill="#466591"
         stroke="#466591"
         stroke-width="0.0938"
         d="m 1132.96,1172.03 c 8.17,-3.87 18.17,-4.25 26.4,-0.3401 2.54,1.2101 5.21,3.2201 5.3101,6.3101 0.5699,5.39 2.0199,10.65 2.63,16.03 0.5299,4.5499 -2.92,9.4099 0.02,13.61 4.4901,7.29 5.5601,16 5.79,24.4 0.28,13.09 -2.27,25.99 -4.27,38.86 -0.9199,6.5599 -2.73,13.0399 -2.71,19.71 3.28,-0.16 6.5699,-0.36 9.86,-0.5699 3.27,-24.99 9.25,-49.73 9.24,-75.0701 0.42,-8.3099 -1.24,-16.5 -1.4199,-24.78 6.9199,-1.37 14.0099,-3.83 21.1299,-2.3099 2.4701,0.42 5.27,1.3199 7.4601,-0.47 10.13,-6.8 22.9199,-7.12 34.6699,-6.2201 5.65,0.65 11.6801,1.01 16.62,4.14 0.65,0.6901 2.3701,1.38 1.91,2.5701 -2.5499,7.7899 -10.0399,12.88 -17.6699,14.91 -3.5,1.09 -7.4,1.4199 -10.39,3.6699 -4.3301,3.9 -5.48,10 -5.9401,15.54 -0.78,10.63 0.12,21.33 -0.91,31.95 -1.3799,16.4301 -6.6599,32.4401 -5.9099,49.05 0.07,10.7999 2.9199,21.29 4.13,31.98 1.9199,18.6 2.33,37.33 2.37,56.03 -0.09,15.36 -0.6801,30.78 0.9199,46.1 0.53,6.48 4.4701,12.5 3.2101,19.15 -0.85,7.65 -4.49,16.2 -0.05,23.39 3.01,0.1499 5.16,-4.6901 8.28,-2.26 3.84,3.96 4.75,9.71 6.0499,14.87 5.02,3.59 9.9901,7.84 12.16,13.8199 3.41,9.2101 2.9601,19.47 0.7001,28.9 H 1106.07 c 0.4,-27.6801 0.29,-55.38 -0.74,-83.04 0.05,-4.6799 1.76,-9.33 0.67,-13.99 -1.47,-7.84 -7.64,-13.52 -10.53,-20.77 -12.78,-0.59 -25.5699,0.29 -38.35,-0.34 -0.29,-15.99 -0.04,-31.98 -0.14,-47.96 0.1801,-24.63 -0.2,-49.25 0.15,-73.88 20.3099,0.01 40.62,0.1899 60.9301,-0.05 3.1699,0.4401 3.0299,-3.4099 3.47,-5.53 1.08,-11.45 -0.41,-23.0299 1.49,-34.4199 1.02,-9.4301 6.21,-17.66 8.15,-26.84 1.39,-6.3 1.21,-12.87 3.0699,-19.0701 0.8201,-3.27 2.17,-6.63 1.51,-10.04 -1.1899,-4.34 -4.71,-7.6799 -5.54,-12.13 -0.4199,-3.6899 0.11,-7.3899 0.74,-11.0099 0.3699,-1.42 0.33,-3.3601 2.01,-3.9 z"
         id="path274" />
      <path
         fill="#466591"
         stroke="#466591"
         stroke-width="0.0938"
         d="m 1358.99,1193.9399 c 5.41,-1.3999 11.3,-1.0099 16.64,0.5701 1.4,2.48 1.66,5.4299 2.96,7.99 2.03,2.5699 5.05,4.28 6.76,7.16 5.0601,8.26 6.01,18.11 8.9601,27.1799 6.5599,21.13 11.0399,42.8101 16.5199,64.23 5.16,21.14 11.3201,42 17.1901,62.9501 5.89,19.9299 10.1899,40.29 15.5599,60.37 2.04,7.51 3.6901,15.3199 7.89,22.01 2.72,-5.1801 3.5,-11.0601 5.29,-16.5701 4.8,-15.5299 8.22,-31.5399 9.0699,-47.7999 1.11,-22.66 2.2301,-45.49 -0.87,-68.03 -3.21,-25.16 -2.6799,-50.65 -6.4099,-75.75 -1.13,-8.34 -2.49,-16.8101 -1.41,-25.24 0.58,-4.6 4.2999,-7.9 5.66,-12.23 1.25,-2.75 1.74,-6.87 5.3099,-7.49 5.09,-0.91 10.48,-1.02 15.52,0.26 1.8,2.2 3.26,4.6699 5.1,6.87 3.47,4.0199 4.35,9.4399 5.5601,14.45 4.35,21.09 6.09,42.59 8.1899,64 2.39,24.95 3.7001,50 4.36,75.0601 0.15,14.34 -0.05,28.7 0.54,43.0399 0.66,11.53 0.54,23.0901 1.16,34.64 0.4099,13.47 0.84,26.96 0.23,40.4401 -0.5601,4.9399 2.83,8.83 5.76,12.36 2.13,2.61 5.4199,3.89 7.6599,6.4 2.3701,3.1599 3.41,7.0699 4.2301,10.8899 2.21,10.9301 2.5599,22.3101 0.5699,33.3 h -21.23 c 1.6799,-5.25 3.65,-10.49 4.33,-15.98 0.4601,-3.55 -1.9399,-6.37 -4.22,-8.72 -4.36,7.7699 -5.64,16.85 -9.91,24.7 h -91.7799 c -0.8601,-12.03 -1.5701,-24.0699 -2.77,-36.0699 -0.5801,-7.6001 -2.63,-15.0601 -2.02,-22.7201 -3.12,-9.99 -4.15,-20.47 -5.03,-30.86 -0.1,-2.21 -3.5,-1.0599 -3.0499,0.7101 0.6399,8.5699 3.37,16.9199 3.09,25.58 -0.16,21.1899 2.76,42.23 3.87,63.36 h -24.07 c -0.11,-10.67 0.64,-21.3101 1.4,-31.95 0.41,-14.63 -4.66,-28.67 -6.4299,-43.0601 -0.53,-3.64 1.59,-6.77 2.5599,-10.1 0.34,-4.08 -1.15,-8.2001 -0.16,-12.26 2.76,-11.41 7.0801,-22.35 10.5801,-33.54 1.66,-5.52 4.35,-10.73 5.35,-16.4299 0.87,-4.91 -1.53,-9.48 -3.2,-13.92 -3.2301,-7.91 -4.7001,-16.37 -6.12,-24.73 -1.17,-8.11 -3.39,-16 -5.25,-23.95 -5.29,-20.1001 -9.2001,-40.52 -14.3401,-60.64 -2.4299,-10.75 -6.3199,-21.3 -6.39,-32.4401 -0.02,-4.75 -0.95,-9.41 -2,-14.02 -1.46,-5.4099 1.9801,-10.26 3.3,-15.2999 1.13,-3.2001 1.62,-7.6601 5.49,-8.7202 m 81.75,293.6101 c 3.25,14.5699 6.61,29.13 10.3101,43.59 3.88,-6.15 6.26,-13.08 9.6399,-19.49 3.78,-7.3301 7.3201,-14.79 10.3701,-22.4501 -4,-0.71 -8.04,-1.0299 -12.0801,-1.21 -6.08,-0.2699 -12.1699,-1.2699 -18.24,-0.4399 z"
         id="path276" />
      <path
         fill="#466591"
         stroke="#466591"
         stroke-width="0.0938"
         d="m 452.72,1261.76 c 5.38,-2.6801 11.84,-4.55 17.67,-2.12 2.39,1.03 5.56,2.33 5.79,5.35 0.85,9.08 -2.41,17.9301 -6.2,26.02 -4.86,9.96 -10.69,19.8199 -12.08,31 -0.57,4.5699 5.66,5.3199 7.04,9.0599 -0.96,5.7201 -4.4,10.91 -4.12,16.91 0.05,10.7001 -1.17,21.3301 -1.94,31.99 -0.73,42.74 2.84,85.39 5.27,128.03 0.39,9.1 0.7,18.35 3.9,27 H 340.07 c -0.64,-5.64 -1.35,-11.3 -1.04,-16.98 0.32,-9.38 2.26,-18.61 2.97,-27.9501 0.57,-9.4299 0.9,-19.2999 -3.04,-28.12 -4.07,-9.47 -3.6,-19.9299 -4.98,-29.95 -3.63,-25.53 -7.97,-50.95 -12.58,-76.3199 -1.5,-8.1801 -3.11,-16.39 -3.58,-24.7001 -0.53,-7.33 2.06,-14.71 0.19,-21.95 -3.08,-12.35 -13.12,-22.27 -13.61,-35.39 0.01,-3.23 -0.58,-7.64 2.84,-9.41 9.66,-6.53 23.53,-2.64 30.36,6.21 3.86,5.0701 6.62,11.15 6.51,17.64 -0.23,5.0601 4.33,8.16 6.73,12.0901 7.62,11.51 11.01,25.11 14.71,38.25 5.34,19.87 11.48,39.5399 16.42,59.5299 5.99,26.0601 8.99,52.7301 15.57,78.67 2.04,7 3.1,14.4301 6.73,20.87 5.38,-18.8099 9.97,-37.86 13.19,-57.16 2.62,-16.74 4.58,-33.5699 6.71,-50.38 1.81,-12.98 -0.46,-26.01 -1.07,-38.98 -0.51,-5.7 3.02,-11.3199 0.84,-16.9099 -2.57,-7.8301 -6.47,-16.04 -4.26,-24.4301 2.74,-6.77 10.15,-10.39 12.67,-17.3199 1.16,-3.9501 0.83,-8.3201 2.89,-11.9901 4.2,-7.4398 9.69,-14.6498 17.48,-18.5598 z"
         id="path278" />
      <path
         fill="#466591"
         stroke="#466591"
         stroke-width="0.0938"
         d="m 938.6,1266.53 c 10.79,-4.7101 23.42,-7.0901 34.65,-2.38 -2.03,11.09 -9.62,20.03 -16.93,28.1899 -5.37,5.54 -9.93,11.8401 -13.49,18.6801 1.6,1.03 3.32,1.96 4.69,3.34 0.35,4.5601 -1.12,9.01 -1.44,13.5601 -3.35,35.4099 2.06,70.7799 4.04,106.09 0.66,10.48 -2.47,20.63 -3.12,31.02 -1.89,23.37 -4.04,46.72 -7.06,69.97 h -59.08 c 1.92,-5.52 3.49,-11.1801 4.49,-16.9301 1.08,-6.2799 0.69,-12.71 1.9301,-18.95 1.02,-4.9 5.79,-7.8 7.25,-12.5 1.14,-3.66 1.21,-7.54 2.03,-11.26 1.21,-5.65 7.38,-8.6899 8.26,-14.49 1.03,-7.3 -1.15,-14.54 -1.16,-21.83 -0.53,-11.11 2.5,-21.9701 2.42,-33.0601 0.38,-9.14 -2.48,-17.99 -2.69,-27.1 -0.88,-26.6901 4.9,-53.24 2.77,-79.9301 -0.6299,-2.8199 2.08,-4.36 4,-5.74 4.22,-3.1599 9.72,-3.99 13.8701,-7.2 1.52,-4.3201 0.8,-9.47 3.78,-13.22 C 930.84,1269.88 934.85,1268.3 938.6,1266.53 Z"
         id="path280" />
      <path
         fill="#466591"
         stroke="#466591"
         stroke-width="0.0938"
         d="m 693.3,1283.38 c 2.64,-5 8.39,-7.28 13.7,-8.12 5.15,-0.63 11.09,0.03 15.01,3.75 0.98,8.1799 -0.03,16.46 -0.41,24.66 -0.73,11.34 -2.13,22.85 -6.53,33.4299 -4.23,10.1 -12.06,18.47 -14.65,29.28 -4.88,19.87 -3.84,40.58 -7.53,60.65 -2.14,11.2899 -6.97,21.78 -11.36,32.34 -3.92,9.38 -3.19,19.73 -4.46,29.63 -0.56,4.72 -2.3,9.1899 -3.91,13.64 6.01,1.99 11.7,4.78 17.15,8 5.28,3.15 11.21,4.96 17.24,6.04 -0.48,6.11 -1.2,12.2 -1.74,18.3199 H 592.65 c 2.5699,-9.51 6.23,-18.6899 9.2599,-28.0601 3.48,-8.6799 5.94,-17.7799 10.23,-26.11 5.29,1.3101 10.23,4.05 15.79,4.2301 1.91,-19.3201 0.27,-38.8101 -1.8,-58.04 -2.78,-22.52 -7.67,-44.74 -13.61,-66.62 -5.76,-22.22 -12.71,-44.14 -17.85,-66.51 2.45,-2.65 4.92,-5.75 8.66,-6.5 5.14,-1.09 10.77,-1.4401 15.75,0.54 4.63,2.1 5.66,7.6699 6.98,12.0699 6.07,22.48 -0.04,46.27 6.44,68.66 2.48,9.52 7.2,18.24 11.99,26.76 3.74,6.5199 7.17,13.23 11.23,19.5699 7.6801,-9.95 10.09,-22.55 15.5601,-33.64 7.15,-14.9299 16.73,-28.89 21.06,-45.03 3.1,-11.5699 1.5099,-23.6399 -0.23,-35.2799 -0.66,-5.8397 -1.95,-12.2997 1.19,-17.6597 z"
         id="path282" />
      <path
         fill="#466591"
         stroke="#466591"
         stroke-width="0.0938"
         d="m 825.84,1292.85 c 5.55,-12.87 24,-17.0399 34.89,-8.53 2.08,3.5901 1.26,8.1101 0.82,12.0601 -2.39,11.7 -8.29,22.49 -9.49,34.48 1.65,-0.1799 3.32,-0.35 5,-0.51 -0.16,4.26 -1.2,8.41 -2.22,12.53 -3.3701,16.48 -4.02,33.33 -4.56,50.09 0.11,25.24 -0.38,50.55 2.23,75.6901 1.52,11.8099 3,23.63 4.78,35.4099 1.37,10.2301 1.86,20.62 0.97,30.9301 h -55.33 c 3.76,-53.9399 3.14,-108.1899 9.83,-161.91 1.38,-10.0399 0.55,-20.1899 1.69,-30.23 0.85,-6.36 2.52,-13.83 8.94,-16.77 -0.67,-4.33 -1.51,-8.71 -0.61,-13.0699 1.18,-6.7004 1.71,-13.5203 3.06,-20.1703 z"
         id="path284" />
      <path
         fill="#466591"
         stroke="#466591"
         stroke-width="0.0938"
         d="m 470.31,1520.71 c -2.22,-2.6 -0.62,-6.9199 2.72,-7.46 7.95,-1.11 16.28,2.14 21.78,7.91 3.66,3.74 4.69,9.02 6.2,13.84 h -16.65 c -0.85,-2.26 -1.25,-4.71 -2.56,-6.74 -3.05,-3.62 -8.39,-4.05 -11.49,-7.55 z"
         id="path286" />
    </g>
    <g
       id="_x23_486390ff"
       style="opacity:1"
       transform="matrix(0.17180751,0,0,0.14975556,-22.339009,-20.126795)">
      <path
         fill="#486390"
         stroke="#486390"
         stroke-width="0.0938"
         d="m 1800.38,1066.48 c 3.91,-0.7 8.27,-0.6799 11.83,1.3101 1.3501,2.96 1.51,6.63 0.07,9.61 -0.75,2.01 -2.24,4 -1.73,6.27 1.51,6.4299 1.4299,13.24 4.3899,19.2899 3.79,8.2201 1.42,17.4301 3.03,26.04 0.2001,2.02 2.52,1.6801 4,1.85 9.61,0.23 19.24,-0.2 28.86,0.2101 0.37,13.97 -0.05,27.9399 0.15,41.9199 -0.2,6.86 0.35,13.74 -0.4299,20.5801 -6.1901,0.48 -12.41,-0.16 -18.5701,0.3899 -2.63,1.7101 -3.8099,5.02 -5.29,7.7001 -1.71,2.97 -1,6.4399 -1.35,9.6799 -1.21,0.9501 -2.5699,1.66 -3.84,2.4501 1.04,21.13 5.16,42.0399 4.86,63.25 0.13,10.99 -0.5599,22 -2.11,32.89 -0.9301,6.25 -2.4,12.84 -6.59,17.76 -7.62,4.12 -17.86,5.2599 -22.67,13.34 0.25,4.97 4.42,8.85 4.85,13.87 0.9,4.73 -1.9399,8.91 -4.36,12.7 -2.48,3.7201 -5.14,7.8101 -9.5499,9.42 -4.7101,2.08 -10.1101,-0.07 -13.7201,-3.3 -4.4299,-3.59 -8.39,-8.7799 -8.09,-14.74 1.72,-7.03 5.34,-13.46 9.64,-19.22 2.2,-2.5 0.51,-6.01 -1.65,-7.87 -4.14,-3.11 -9.49,-4.21 -13.45,-7.59 -3.91,-3.64 -2.6801,-9.52 -2.75,-14.28 1.0499,-9.62 1.99,-19.39 0.2,-28.99 -1,-8.0601 -5.5599,-14.92 -9.12,-22.01 -3.1,-6.03 -3.77,-13.28 -1.5599,-19.71 1.0099,-2.99 3.86,-4.6801 5.72,-7.0801 1.53,-2.5 1.87,-5.73 4.13,-7.76 1.36,0.28 2.71,0.77 4.13,0.98 2.09,-5.5 -1.5601,-11.2599 0.1799,-16.7899 2.35,-7.99 1.39,-16.42 1.62,-24.62 -0.05,-14.36 0.14,-28.85 2.8201,-43.01 2.4299,-13.15 -3.61,-25.91 -2.9,-39.05 -0.22,-5.5699 1.2,-12.47 -3.35,-16.72 -4.26,-2.1801 -9.54,-2.4 -13.05,-5.99 -1.14,-1.27 -3.5699,-2.97 -2.29,-4.84 5.7101,-4.0601 13.28,-4.1901 19.9301,-2.88 3.54,0.5699 6.49,2.71 9.73,4.09 4.54,0.25 9.25,-0.37 13.5801,1.48 -1.05,8.9301 -0.9601,18 0.2899,26.91 0.88,8.03 2.89,15.91 3.4,23.99 1.8,0.64 3.6801,0.59 5.52,0.03 -1.54,-11.49 -4.99,-22.99 -3.48,-34.66 0.37,-4.1 3.8199,-7.49 3.01,-11.73 -0.4601,-4 1.09,-7.8101 1.6,-11.7101 -0.01,-2.28 2.6098,-2.8799 4.3598,-3.46 z"
         id="path381" />
    </g>
    <g
       id="Layer_1"
       transform="matrix(0.39805486,0,0,0.46416109,-11.86765,-67.93259)">
      <title
         id="title2466">Layer 1</title>
      <path
         stroke="#bf6715"
         fill-opacity="0.89"
         id="svg_5"
         d="m 225.50052,152.00003 h -53.98421 l 50.06357,113.49996 -53.07945,-1.08095 31.20276,-47.12856 -5.68381,-16.48921 31.48115,-48.80124 z"
         fill="url(#svg_37)"
         style="fill:url(#svg_37)" />
      <path
         stroke="#e0934c"
         fill-opacity="0.82"
         id="svg_28"
         d="m 114.41806,264.59385 25.49995,-112.49978 25.49995,112.49978 h -50.99989 z"
         fill="url(#svg_36)"
         style="fill:url(#svg_36)" />
      <path
         stroke="#e0934c"
         fill-opacity="0.82"
         id="svg_29"
         d="M 60.41819,265.59384 85.41814,153.59407 110.41809,265.59384 H 60.41818 Z"
         fill="url(#svg_35)"
         style="fill:url(#svg_35)" />
      <text
         xml:space="preserve"
         text-anchor="start"
         font-family="sans-serif"
         font-size="24px"
         stroke-width="0"
         id="svg_39"
         y="293.74942"
         x="35.00074"
         stroke="#e0934c"
         fill="#db7430">Anagha Agile Systems</text>
      <line
         stroke="url(#svg_43)"
         stroke-opacity="0.87"
         stroke-width="5"
         id="svg_41"
         y2="264.74945"
         x2="222.00037"
         y1="152.24969"
         x1="170.50046"
         fill="none"
         style="stroke:url(#svg_43)" />
    </g>
  </g>
</svg>
